<svg width="13" height="11" viewBox="0 0 13 11" fill="none" xmlns="http://www.w3.org/2000/svg">
<path d="M1.5 10.5C1.15625 10.5 0.862083 10.3777 0.6175 10.1331C0.3725 9.88813 0.25 9.59375 0.25 9.25V1.75C0.25 1.40625 0.3725 1.11208 0.6175 0.8675C0.862083 0.6225 1.15625 0.5 1.5 0.5H11.5C11.8438 0.5 12.1381 0.6225 12.3831 0.8675C12.6277 1.11208 12.75 1.40625 12.75 1.75V9.25C12.75 9.59375 12.6277 9.88813 12.3831 10.1331C12.1381 10.3777 11.8438 10.5 11.5 10.5H1.5ZM6.5 6.01562C6.55208 6.01562 6.60667 6.00771 6.66375 5.99187C6.72125 5.97646 6.77604 5.95312 6.82812 5.92188L11.25 3.15625C11.3333 3.10417 11.3958 3.03917 11.4375 2.96125C11.4792 2.88292 11.5 2.79688 11.5 2.70312C11.5 2.49479 11.4115 2.33854 11.2344 2.23438C11.0573 2.13021 10.875 2.13542 10.6875 2.25L6.5 4.875L2.3125 2.25C2.125 2.13542 1.94271 2.13271 1.76563 2.24188C1.58854 2.35146 1.5 2.50521 1.5 2.70312C1.5 2.80729 1.52083 2.89833 1.5625 2.97625C1.60417 3.05458 1.66667 3.11458 1.75 3.15625L6.17188 5.92188C6.22396 5.95312 6.27875 5.97646 6.33625 5.99187C6.39333 6.00771 6.44792 6.01562 6.5 6.01562Z" fill="#EE5719"/>
</svg>
