<svg width="13" height="13" viewBox="0 0 13 13" fill="none" xmlns="http://www.w3.org/2000/svg">
<path d="M3.1375 5.74375C4.0375 7.5125 5.4875 8.9625 7.25625 9.8625L8.63125 8.4875C8.80625 8.3125 9.05 8.2625 9.26875 8.33125C9.96875 8.5625 10.7188 8.6875 11.5 8.6875C11.6658 8.6875 11.8247 8.75335 11.9419 8.87056C12.0592 8.98777 12.125 9.14674 12.125 9.3125V11.5C12.125 11.6658 12.0592 11.8247 11.9419 11.9419C11.8247 12.0592 11.6658 12.125 11.5 12.125C8.68207 12.125 5.97956 11.0056 3.98699 9.01301C1.99442 7.02044 0.875 4.31793 0.875 1.5C0.875 1.33424 0.940848 1.17527 1.05806 1.05806C1.17527 0.940848 1.33424 0.875 1.5 0.875H3.6875C3.85326 0.875 4.01223 0.940848 4.12944 1.05806C4.24665 1.17527 4.3125 1.33424 4.3125 1.5C4.3125 2.28125 4.4375 3.03125 4.66875 3.73125C4.7375 3.95 4.6875 4.19375 4.5125 4.36875L3.1375 5.74375Z" fill="#EE5719"/>
</svg>
